<?xml version="1.0" encoding="UTF-8" standalone="no"?>
<!DOCTYPE svg PUBLIC "-//W3C//DTD SVG 1.1//EN" "http://www.w3.org/Graphics/SVG/1.1/DTD/svg11.dtd">
<svg width="100%" height="100%" viewBox="0 0 3840 623" version="1.1" xmlns="http://www.w3.org/2000/svg" style="fill-rule:evenodd;clip-rule:evenodd;stroke-linejoin:round;stroke-miterlimit:2;">
    <g transform="matrix(1,0,0,1,0,-768.795)">
        <g transform="matrix(27.0613,0,0,27.0613,0,768.795)">
            <g id="bc-logo">
                <path id="Shape" d="M31.3,0.3L36,0.3L36,22.6L31.3,22.6L31.3,0.3ZM28.5,6.2L28.5,7.1C28.5,9.9 27.5,11.2 24.9,11.5L24.9,11.9C27.5,12.2 28.5,13.4 28.5,16.3L28.5,22.7L23.8,22.7L23.8,16.1C23.8,14.3 23.3,13.8 21.9,13.8L20.3,13.8L20.3,22.7L15.6,22.7L15.6,0.3L22.8,0.3C27,0.3 28.5,2.1 28.5,6.2ZM23.8,6.5C23.8,4.7 23.3,4.2 21.9,4.2L20.3,4.2L20.3,10L21.6,10C23.2,10 23.8,9.4 23.8,7.6L23.8,6.5ZM13.1,15.7L13.1,16.8C13.1,20.9 11.6,22.7 7.4,22.7L0,22.7L0,0.3L7.3,0.3C11.5,0.3 13,2 13,6.2L13,6.5C13,9.3 12,10.6 9.4,10.9L9.4,11.3C12.1,11.6 13.1,12.8 13.1,15.7ZM4.7,9.4L6.2,9.4C7.8,9.4 8.4,8.8 8.4,7L8.4,6.5C8.4,4.7 7.9,4.2 6.5,4.2L4.7,4.2L4.7,9.4ZM8.4,15.5C8.4,13.7 7.9,13.2 6.5,13.2L4.7,13.2L4.7,18.8L6.4,18.8C7.8,18.8 8.3,18.3 8.3,16.5L8.3,15.5L8.4,15.5ZM45.3,0C41.1,0 38.9,2.3 38.9,6.7L38.9,17C38.9,21.1 40.6,23 44.3,23C47.4,23 48.6,21.7 48.8,18.6L49,18.6L49.6,22.7L51.7,22.7L51.7,10.3L45.3,10.3L45.3,13.7L47.2,13.7L47.2,17C47.2,18.6 46.6,19.2 45.4,19.2C44.2,19.2 43.6,18.5 43.6,17L43.6,6C43.6,4.4 44.2,3.8 45.3,3.8C46.4,3.8 47,4.4 47,6L47,8.4L51.6,8.4L51.6,6.5C51.7,2.2 49.5,0 45.3,0ZM117.3,18.8L116.9,18.8L115.2,0.3L110.4,0.3L113,22.6L120.8,22.6L123.3,0.3L119,0.3L117.3,18.8ZM108.8,6.7L108.8,16.3C108.8,20.7 106.6,23 102.3,23C98.1,23 95.8,20.7 95.8,16.3L95.8,6.7C95.8,2.3 98,0 102.3,0C106.6,0 108.8,2.3 108.8,6.7ZM104.1,6C104.1,4.4 103.5,3.8 102.3,3.8C101.1,3.8 100.5,4.5 100.5,6L100.5,17C100.5,18.6 101.1,19.2 102.3,19.2C103.5,19.2 104.1,18.5 104.1,17L104.1,6ZM135.8,4.2L135.8,0.3L125.2,0.3L125.2,22.6L135.8,22.6L135.8,18.7L129.9,18.7L129.9,13.2L135.4,13.2L135.4,9.5L129.9,9.5L129.9,4.2L135.8,4.2ZM68.9,4.2L72.2,4.2L72.2,22.7L76.9,22.7L76.9,4.2L80.2,4.2L80.2,0.3L68.9,0.3L68.9,4.2ZM87.5,0C83.4,0 81.2,2.3 81.2,6.7L81.2,16.3C81.2,20.7 83.4,23 87.5,23C91.7,23 93.8,20.8 93.8,16.5L93.8,13.8L89.2,13.8L89.2,17C89.2,18.6 88.6,19.2 87.5,19.2C86.4,19.2 85.8,18.5 85.8,17L85.8,6C85.8,4.4 86.4,3.8 87.5,3.8C88.6,3.8 89.2,4.5 89.2,6L89.2,9L93.8,9L93.8,6.5C93.8,2.2 91.6,0 87.5,0ZM62.6,9.5L59.3,9.5L59.3,0.3L54.6,0.3L54.6,22.6L59.3,22.6L59.3,13.2L62.6,13.2L62.6,22.6L67.3,22.6L67.3,0.3L62.6,0.3L62.6,9.5ZM139.6,0.4C138.3,0.4 137.3,1.4 137.3,2.7C137.3,4 138.3,5 139.6,5C140.9,5 141.9,4 141.9,2.7C141.9,1.4 140.9,0.4 139.6,0.4ZM139.6,4.7C138.5,4.7 137.6,3.9 137.6,2.7C137.6,1.5 138.4,0.7 139.6,0.7C140.7,0.7 141.6,1.5 141.6,2.7C141.6,3.9 140.7,4.7 139.6,4.7ZM140.6,2.3C140.6,1.8 140.3,1.5 139.7,1.5L138.7,1.5L138.7,3.7L139.2,3.7L139.2,3.1L139.7,3.1L140.1,3.9L140.6,3.9L140.1,3C140.4,2.8 140.6,2.6 140.6,2.3ZM140.1,2.3C140.1,2.5 140,2.6 139.7,2.6L139.2,2.6L139.2,2L139.7,2C140,2 140.1,2.1 140.1,2.3Z" 
                style="fill:#ffffff;fill-rule:nonzero;"/>
            </g>
        </g>
    </g>
</svg>
