<svg xmlns="http://www.w3.org/2000/svg" viewBox="0 0 173.42 173.42">
    <defs>
        <style>.cls-1{fill:#fff;}</style>
    </defs>
    <g id="Layer_2" data-name="Layer 2">
        <g id="Layer_1-2" data-name="Layer 1">
            <path class="cls-1" d="M117.76,12.18C107,1.45,94,0,82.67,0H12A12,12,0,0,0,0,12V113.6a12,12,0,0,0,3.51,8.49L27.44,146c.31.31-.33-.27,0,0s-.3-.3,0,0L51.33,169.9a12,12,0,0,0,8.48,3.52H129c13.13,0,23.63-2.95,31.2-8.76,6-4.63,13.23-13.47,13.23-29.24v-4.93c0-6.05-.81-14.8-7.5-22.27a23.59,23.59,0,0,0,1.66-1.94c5-6.51,5.54-14.46,5.54-19.87V84c0-7.52-1.73-18.2-9.94-26.42"/>
            <path d="M69.67,117.34V96.72H92.39c8.66,0,11.35,2.24,11.35,9.41v1.79c0,7.18-2.69,9.42-11.35,9.42Z"/>
            <path d="M69.67,56.08H92.39c8.66,0,11.35,2.24,11.35,9.41v.75c0,7.17-2.69,9.41-11.35,9.41H69.67Z"/>
            <path d="M134.52,45.92l20.17,20.17c4.19,4.18,6.43,10.16,6.43,17.93v2.39c0,11.21-3.44,16.29-14.35,18.23V106l9.57,9.57c3.88,3.88,5.08,8.66,5.08,14.94v4.93c0,17.93-12,26-32.43,26H59.81l-23-23H106c20.47,0,32.43-8.07,32.43-26v-4.93c0-13.9-6.28-20-24.36-20.62V84c18.08-.6,24.06-6.72,24.06-20.62V61c0-5.68-1.2-10.61-3.89-14.79Z"/>
            <path d="M128.25,40.24c-6-3.74-13.6-5.23-22.57-5.23H35v101.6l-23-23V12H82.67c11.66,0,19.88,1.94,26.6,8.67l19.27,19.27Z"/>
        </g>
    </g>
</svg>