<svg fill="none" height="24" viewBox="0 0 24 24" width="24" xmlns="http://www.w3.org/2000/svg"><path d="m18.25 12c0-.4142-.3358-.75-.75-.75s-.75.3358-.75.75zm-14.68271 5.9792.6205-.4213zm.56361.8301-.6205.4213zm-.0966-7.4346-.51726-.5431c-.0134.0128-.02633.0261-.03875.0398zm1.96063-.8316c.29994-.2857.3115-.76042.02583-1.06036-.28568-.29994-.76041-.3115-1.06035-.02583zm-3.98974 4.3941.74868-.0445zm.05385-.7616-.73498-.1494zm15.14926 4.4924.7056.2543zm-3.1017 3.0456-.2462-.7085zm-6.15958.1736.15566-.7337zm-2.46935-1.2976.51716-.5432zm-.72767-6.0896c0 .4142.33579.75.75.75.41422 0 .75-.3358.75-.75zm3-3.5c0 .4142.33579.75.75.75.41422 0 .75-.3358.75-.75zm3 0c0 .4142.3358.75.75.75s.75-.3358.75-.75zm.75-2v-.75c-.4142 0-.75.33579-.75.75zm2.25 3c0 .4142.3358.75.75.75s.75-.3358.75-.75zm.75-2 .1233-.7398c-.2175-.03624-.4399.02503-.6081.16753-.1682.14251-.2652.35181-.2652.57227zm1.3288.2215.1233-.73983zm.9212 2.7785c0 .4142.3358.75.75.75s.75-.3358.75-.75zm0-1v2.8347h1.5v-2.8347zm-13.80321 6.4005.56361.8301 1.241-.8426-.56361-.8301zm1.60477-6.4827 1.44337-1.3747-1.03452-1.08619-1.44337 1.37469zm-.36377 5.6401c-.51281-.7553-.86675-1.278-1.10364-1.7119-.23011-.4215-.3152-.6995-.33028-.9533l-1.49736.089c.03318.5585.22453 1.0583.5111 1.5831.27979.5125.68277 1.1045 1.17918 1.8357zm-.7095-6.6865c-.59463.6568-1.07686 1.1883-1.4259 1.6576-.35737.4805-.61694.949-.72833 1.4972l1.46997.2987c.05074-.2498.17443-.5141.46196-.9007.29587-.3978.7202-.8678 1.33432-1.5461zm-.72442 4.0213c-.0113-.1901.00218-.3809.04016-.5678l-1.46997-.2987c-.06386.3143-.08657.6354-.06755.9555zm13.99613-.058c0 2.0804-.0112 2.9239-.2473 3.579l1.4112.5086c.3473-.9637.3361-2.1361.3361-4.0876zm-6.5473 7.9153c1.9905 0 3.176.0105 4.15-.328l-.4923-1.4169c-.6746.2344-1.5422.2449-3.6577.2449zm6.3-4.3363c-.4347 1.2064-1.4035 2.161-2.6423 2.5914l.4923 1.4169c1.6594-.5765 2.9704-1.8604 3.5612-3.4997zm-6.3 2.8363c-1.18216 0-1.66358-.0039-2.10002-.0965l-.31131 1.4674c.62674.133 1.29468.1291 2.41133.1291zm-6.6923-2.0194c.61889.9115.98776 1.462 1.45011 1.9022l1.03432-1.0864c-.31854-.3033-.58723-.6919-1.24343-1.6584zm4.59228 1.9229c-.7958-.1688-1.52583-.553-2.10785-1.1071l-1.03432 1.0864c.7848.7472 1.76573 1.2621 2.83086 1.4881zm-1.85268-6.6535v-10h-1.5v10zm1.5-10v3.5h1.5v-3.5zm-.75-.75c.41422 0 .75.33579.75.75h1.5c0-1.24264-1.00736-2.25-2.25-2.25zm-.75.75c0-.41421.33579-.75.75-.75v-1.5c-1.24264 0-2.25 1.00736-2.25 2.25zm2.25 4.25h1v-1.5h-1zm2.25 1.25v1h1.5v-1zm-1.25-1.25c.6904 0 1.25.55964 1.25 1.25h1.5c0-1.51878-1.2312-2.75-2.75-2.75zm2.75 1.25v-1h-1.5v1zm-.75-.25h1v-1.5h-1zm2.25 1.25v1h1.5v-1zm-1.25-1.25c.6904 0 1.25.5596 1.25 1.25h1.5c0-1.51878-1.2312-2.75-2.75-2.75zm2.75 1.25v-1h-1.5v1zm-.8733-.2602 1.3288.2215.2466-1.47963-1.3288-.22147zm2.3733 1.4545v.8057h1.5v-.8057zm-1.0445-1.233c.6027.1004 1.0445.6219 1.0445 1.233h1.5c0-1.3444-.9719-2.49163-2.2979-2.71263zm-7.9555-2.9613v3h1.5v-3z" fill="#ffffff"/><path d="m19.5 2v6m0-6c-.7002 0-2.0085 1.9943-2.5 2.5m2.5-2.5c.7002 0 2.0085 1.9943 2.5 2.5" stroke="#ffffff" stroke-linecap="round" stroke-linejoin="round" stroke-width="1.5"/></svg>