<?xml version="1.0" encoding="UTF-8" standalone="no"?>
<!DOCTYPE svg PUBLIC "-//W3C//DTD SVG 1.1//EN" "http://www.w3.org/Graphics/SVG/1.1/DTD/svg11.dtd">
<svg width="100%" height="100%" viewBox="0 0 3713 1056" version="1.1" xmlns="http://www.w3.org/2000/svg" xmlns:xlink="http://www.w3.org/1999/xlink" xml:space="preserve" xmlns:serif="http://www.serif.com/" style="fill-rule:evenodd;clip-rule:evenodd;stroke-linejoin:round;stroke-miterlimit:2;">
    <g transform="matrix(1,0,0,1,-66.5389,-656.446)">
        <g id="engineering-dark" serif:id="engineering dark" transform="matrix(0.965486,0,0,0.390661,1211.93,1052.89)">
            <path d="M312.297,1112.52C378.664,1112.52 418.903,1019.53 428.571,925.255L429.093,920.089L383.629,920.089L382.584,925.9C375.006,967.875 351.49,1012.43 313.342,1012.43C263.174,1012.43 231.035,928.483 229.729,784.48L432.49,784.48L432.49,740.568C432.49,532.635 385.98,391.86 309.422,391.86C232.864,391.86 183.219,539.092 183.219,754.129L183.219,754.775C183.219,973.041 231.819,1112.52 312.297,1112.52ZM309.161,491.952C350.706,491.952 381.538,557.173 386.242,694.72L230.513,694.72C235.477,562.339 267.355,491.952 309.161,491.952Z" style="fill:rgb(71,85,105);fill-rule:nonzero;"/>
            <path d="M460.228,1100.26L505.693,1100.26L505.693,688.262C505.693,566.214 534.173,491.306 579.115,491.306C624.057,491.306 644.96,551.362 644.96,676.638L644.96,1100.26L690.425,1100.26L690.425,649.517C690.425,484.203 655.151,391.86 591.919,391.86C550.373,391.86 523.983,435.125 509.873,508.742L505.693,508.742L505.693,404.129L460.228,404.129L460.228,1100.26Z" style="fill:rgb(71,85,105);fill-rule:nonzero;"/>
            <path d="M845.673,1345.64C922.492,1345.64 971.092,1246.2 971.092,1090.57L971.092,404.129L925.628,404.129L925.628,519.074L922.492,519.074C905.247,440.292 874.415,391.86 834.699,391.86C761.015,391.86 715.55,533.28 715.55,728.299L715.55,729.59C715.55,924.609 760.754,1064.09 833.653,1064.09C872.324,1064.09 904.202,1020.83 921.969,943.982L926.15,943.982L926.15,1084.76C926.15,1187.43 896.102,1246.2 845.673,1246.2C805.173,1246.2 780.089,1208.74 775.125,1155.79L774.863,1155.14L727.831,1155.14L727.308,1155.79C734.363,1270.09 777.737,1345.64 845.673,1345.64ZM843.582,964.646C791.325,964.646 762.06,867.782 762.06,729.59L762.06,728.299C762.06,590.107 791.325,491.306 843.582,491.306C895.579,491.306 927.195,590.107 927.195,728.299L927.195,729.59C927.195,867.782 895.84,964.646 843.582,964.646Z" style="fill:rgb(71,85,105);fill-rule:nonzero;"/>
            <clipPath id="_clip1">
                <rect x="1005.62" y="296.675" width="62.71" height="803.579"/>
            </clipPath>
            <g clip-path="url(#_clip1)">
                <path d="M1036.98,269.812C1054.22,269.812 1068.33,234.941 1068.33,192.321C1068.33,149.701 1054.22,114.83 1036.98,114.83C1019.73,114.83 1005.62,149.701 1005.62,192.321C1005.62,234.941 1019.73,269.812 1036.98,269.812ZM1013.99,1100.26L1059.45,1100.26L1059.45,404.129L1013.99,404.129L1013.99,1100.26Z" style="fill:rgb(71,85,105);fill-rule:nonzero;"/>
            </g>
            <path d="M1102.34,1100.26L1147.81,1100.26L1147.81,688.262C1147.81,566.214 1176.29,491.306 1221.23,491.306C1266.17,491.306 1287.08,551.362 1287.08,676.638L1287.08,1100.26L1332.54,1100.26L1332.54,649.517C1332.54,484.203 1297.27,391.86 1234.03,391.86C1192.49,391.86 1166.1,435.125 1151.99,508.742L1147.81,508.742L1147.81,404.129L1102.34,404.129L1102.34,1100.26Z" style="fill:rgb(71,85,105);fill-rule:nonzero;"/>
            <path d="M1486.74,1112.52C1553.11,1112.52 1593.35,1019.53 1603.02,925.255L1603.54,920.089L1558.07,920.089L1557.03,925.9C1549.45,967.875 1525.94,1012.43 1487.79,1012.43C1437.62,1012.43 1405.48,928.483 1404.17,784.48L1606.94,784.48L1606.94,740.568C1606.94,532.635 1560.43,391.86 1483.87,391.86C1407.31,391.86 1357.66,539.092 1357.66,754.129L1357.66,754.775C1357.66,973.041 1406.27,1112.52 1486.74,1112.52ZM1483.61,491.952C1525.15,491.952 1555.98,557.173 1560.69,694.72L1404.96,694.72C1409.92,562.339 1441.8,491.952 1483.61,491.952Z" style="fill:rgb(71,85,105);fill-rule:nonzero;"/>
            <path d="M1749.64,1112.52C1816.01,1112.52 1856.25,1019.53 1865.92,925.255L1866.44,920.089L1820.97,920.089L1819.93,925.9C1812.35,967.875 1788.84,1012.43 1750.69,1012.43C1700.52,1012.43 1668.38,928.483 1667.07,784.48L1869.84,784.48L1869.84,740.568C1869.84,532.635 1823.33,391.86 1746.77,391.86C1670.21,391.86 1620.57,539.092 1620.57,754.129L1620.57,754.775C1620.57,973.041 1669.16,1112.52 1749.64,1112.52ZM1746.51,491.952C1788.05,491.952 1818.88,557.173 1823.59,694.72L1667.86,694.72C1672.82,562.339 1704.7,491.952 1746.51,491.952Z" style="fill:rgb(71,85,105);fill-rule:nonzero;"/>
            <path d="M1897.57,1100.26L1943.04,1100.26L1943.04,668.889C1943.04,566.86 1973.87,499.055 2017.24,499.055C2027.17,499.055 2035.8,501.638 2045.2,505.513L2045.2,396.38C2040.76,394.443 2031.09,391.86 2022.47,391.86C1984.32,391.86 1957.93,434.48 1947.22,507.45L1943.04,507.45L1943.04,404.129L1897.57,404.129L1897.57,1100.26Z" style="fill:rgb(71,85,105);fill-rule:nonzero;"/>
            <path d="M2082.61,269.812C2099.85,269.812 2113.96,234.941 2113.96,192.321C2113.96,149.701 2099.85,114.83 2082.61,114.83C2065.36,114.83 2051.25,149.701 2051.25,192.321C2051.25,234.941 2065.36,269.812 2082.61,269.812ZM2059.62,1100.26L2105.08,1100.26L2105.08,404.129L2059.62,404.129L2059.62,1100.26Z" style="fill:rgb(71,85,105);fill-rule:nonzero;"/>
            <path d="M2147.97,1100.26L2193.44,1100.26L2193.44,688.262C2193.44,566.214 2221.92,491.306 2266.86,491.306C2311.8,491.306 2332.7,551.362 2332.7,676.638L2332.7,1100.26L2378.17,1100.26L2378.17,649.517C2378.17,484.203 2342.89,391.86 2279.66,391.86C2238.12,391.86 2211.73,435.125 2197.62,508.742L2193.44,508.742L2193.44,404.129L2147.97,404.129L2147.97,1100.26Z" style="fill:rgb(71,85,105);fill-rule:nonzero;"/>
            <path d="M2533.42,1345.64C2610.24,1345.64 2658.84,1246.2 2658.84,1090.57L2658.84,404.129L2613.37,404.129L2613.37,519.074L2610.24,519.074C2592.99,440.292 2562.16,391.86 2522.44,391.86C2448.76,391.86 2403.3,533.28 2403.3,728.299L2403.3,729.59C2403.3,924.609 2448.5,1064.09 2521.4,1064.09C2560.07,1064.09 2591.95,1020.83 2609.71,943.982L2613.89,943.982L2613.89,1084.76C2613.89,1187.43 2583.85,1246.2 2533.42,1246.2C2492.92,1246.2 2467.83,1208.74 2462.87,1155.79L2462.61,1155.14L2415.58,1155.14L2415.05,1155.79C2422.11,1270.09 2465.48,1345.64 2533.42,1345.64ZM2531.33,964.646C2479.07,964.646 2449.8,867.782 2449.8,729.59L2449.8,728.299C2449.8,590.107 2479.07,491.306 2531.33,491.306C2583.32,491.306 2614.94,590.107 2614.94,728.299L2614.94,729.59C2614.94,867.782 2583.59,964.646 2531.33,964.646Z" style="fill:rgb(71,85,105);fill-rule:nonzero;"/>
        </g>
        <g id="value-dark" serif:id="value dark" transform="matrix(0.46092,0,0,0.38723,1294.01,697.674)">
            <path d="M410.599,1104.56L506.928,1104.56L725.31,402.269L624.602,402.269L463.142,980.782L454.385,980.782L292.925,402.269L192.218,402.269L410.599,1104.56Z" style="fill:rgb(71,85,105);fill-rule:nonzero;"/>
            <path d="M935.262,1116.94C1014.62,1116.94 1076.47,1075.9 1113.69,1000.98L1122.45,1000.98L1122.45,1104.56L1217.68,1104.56L1217.68,623.772C1217.68,477.841 1137.22,389.891 993.279,389.891C867.394,389.891 777.634,464.16 762.309,574.26L761.761,578.169L856.995,578.169L857.543,576.214C872.868,521.49 919.39,490.219 989.995,490.219C1078.11,490.219 1122.45,537.126 1122.45,623.772L1122.45,687.617L953.324,699.995C815.946,709.767 738.226,782.081 738.226,907.165L738.226,908.468C738.226,1036.16 823.061,1116.94 935.262,1116.94ZM835.65,905.862L835.65,904.559C835.65,834.851 875.057,797.065 964.818,790.551L1122.45,778.824L1122.45,842.669C1122.45,942.997 1051.84,1018.57 954.966,1018.57C886.551,1018.57 835.65,976.874 835.65,905.862Z" style="fill:rgb(71,85,105);fill-rule:nonzero;"/>
            <rect x="1341.16" y="123.437" width="95.234" height="981.127" style="fill:rgb(71,85,105);fill-rule:nonzero;"/>
            <path d="M1760.73,1116.94C1847.21,1116.94 1906.87,1074.6 1935.88,999.675L1944.63,999.675L1944.63,1104.56L2039.87,1104.56L2039.87,402.269L1944.63,402.269L1944.63,817.913C1944.63,941.042 1889.35,1016.61 1785.36,1016.61C1691.22,1016.61 1652.91,956.026 1652.91,829.639L1652.91,402.269L1557.68,402.269L1557.68,857.002C1557.68,1023.13 1626.64,1116.94 1760.73,1116.94Z" style="fill:rgb(71,85,105);fill-rule:nonzero;"/>
            <path d="M2401.98,1116.94C2541,1116.94 2625.28,1023.13 2645.53,928.013L2646.63,922.801L2551.39,922.801L2549.21,928.664C2533.33,971.01 2484.08,1015.96 2404.17,1015.96C2299.08,1015.96 2231.76,931.27 2229.02,785.99L2653.74,785.99L2653.74,741.69C2653.74,531.914 2556.32,389.891 2395.96,389.891C2235.59,389.891 2131.6,538.428 2131.6,755.371L2131.6,756.022C2131.6,976.222 2233.4,1116.94 2401.98,1116.94ZM2395.41,490.871C2482.43,490.871 2547.02,556.67 2556.87,695.435L2230.66,695.435C2241.06,561.882 2307.84,490.871 2395.41,490.871Z" style="fill:rgb(71,85,105);fill-rule:nonzero;"/>
        </g>
        <g transform="matrix(3.28539,0,0,3.28539,-239.521,-129.787)">
            <circle cx="100" cy="246.154" r="6.842" style="fill:rgb(53,130,255);fill-opacity:0.35;"/>
        </g>
        <g transform="matrix(3.28539,0,0,3.28539,-239.521,-129.787)">
            <circle cx="200" cy="246.154" r="6.842" style="fill:rgb(53,130,255);fill-opacity:0.35;"/>
        </g>
        <g transform="matrix(3.28539,0,0,3.28539,-239.521,-129.787)">
            <circle cx="300" cy="246.154" r="6.842" style="fill:rgb(53,130,255);"/>
        </g>
        <g transform="matrix(3.28539,0,0,3.28539,-239.521,-129.787)">
            <circle cx="400" cy="246.154" r="6.842" style="fill:rgb(53,130,255);"/>
        </g>
        <g transform="matrix(3.28539,0,0,3.28539,-239.521,-129.787)">
            <circle cx="500" cy="246.154" r="6.842" style="fill:rgb(53,130,255);"/>
        </g>
        <g transform="matrix(3.28539,0,0,3.28539,-239.521,-129.787)">
            <circle cx="600" cy="246.154" r="6.842" style="fill:rgb(53,130,255);fill-opacity:0.35;"/>
        </g>
        <g transform="matrix(3.28539,0,0,3.28539,-239.521,-129.787)">
            <circle cx="700" cy="246.154" r="6.842" style="fill:rgb(53,130,255);fill-opacity:0.35;"/>
        </g>
        <g transform="matrix(3.28539,0,0,3.28539,-239.521,-129.787)">
            <circle cx="100" cy="307.692" r="6.842" style="fill:rgb(53,130,255);fill-opacity:0.35;"/>
        </g>
        <g transform="matrix(3.28539,0,0,3.28539,-239.521,-129.787)">
            <circle cx="200" cy="307.692" r="6.842" style="fill:rgb(53,130,255);fill-opacity:0.35;"/>
        </g>
        <g transform="matrix(3.28539,0,0,3.28539,-239.521,-129.787)">
            <circle cx="300" cy="307.692" r="6.842" style="fill:rgb(53,130,255);"/>
        </g>
        <g transform="matrix(3.28539,0,0,3.28539,-239.521,-129.787)">
            <circle cx="400" cy="307.692" r="6.842" style="fill:rgb(53,130,255);fill-opacity:0.35;"/>
        </g>
        <g transform="matrix(3.28539,0,0,3.28539,-239.521,-129.787)">
            <circle cx="100" cy="369.231" r="6.842" style="fill:rgb(53,130,255);fill-opacity:0.35;"/>
        </g>
        <g transform="matrix(3.28539,0,0,3.28539,-239.521,-129.787)">
            <circle cx="200" cy="369.231" r="6.842" style="fill:rgb(53,130,255);"/>
        </g>
        <g transform="matrix(3.28539,0,0,3.28539,-239.521,-129.787)">
            <circle cx="300" cy="369.231" r="6.842" style="fill:rgb(53,130,255);fill-opacity:0.35;"/>
        </g>
        <g transform="matrix(3.28539,0,0,3.28539,-239.521,-129.787)">
            <circle cx="400" cy="369.231" r="6.842" style="fill:rgb(53,130,255);fill-opacity:0.35;"/>
        </g>
        <g transform="matrix(3.28539,0,0,3.28539,-239.521,-129.787)">
            <circle cx="100" cy="430.769" r="6.842" style="fill:rgb(53,130,255);fill-opacity:0.35;"/>
        </g>
        <g transform="matrix(3.28539,0,0,3.28539,-239.521,-129.787)">
            <circle cx="200" cy="430.769" r="6.842" style="fill:rgb(53,130,255);fill-opacity:0.35;"/>
        </g>
        <g transform="matrix(3.28539,0,0,3.28539,-239.521,-129.787)">
            <circle cx="300" cy="430.769" r="6.842" style="fill:rgb(53,130,255);"/>
        </g>
        <g transform="matrix(3.28539,0,0,3.28539,-239.521,-129.787)">
            <circle cx="400" cy="430.769" r="6.842" style="fill:rgb(53,130,255);"/>
        </g>
        <g transform="matrix(3.28539,0,0,3.28539,-239.521,-129.787)">
            <circle cx="100" cy="492.308" r="6.842" style="fill:rgb(53,130,255);"/>
        </g>
        <g transform="matrix(3.28539,0,0,3.28539,-239.521,-129.787)">
            <circle cx="200" cy="492.308" r="6.842" style="fill:rgb(53,130,255);fill-opacity:0.35;"/>
        </g>
        <g transform="matrix(3.28539,0,0,3.28539,-239.521,-129.787)">
            <circle cx="300" cy="492.308" r="6.842" style="fill:rgb(53,130,255);fill-opacity:0.35;"/>
        </g>
        <g transform="matrix(3.28539,0,0,3.28539,-239.521,-129.787)">
            <circle cx="400" cy="492.308" r="6.842" style="fill:rgb(53,130,255);fill-opacity:0.35;"/>
        </g>
        <g transform="matrix(3.28539,0,0,3.28539,-239.521,-129.787)">
            <circle cx="100" cy="553.846" r="6.842" style="fill:rgb(53,130,255);fill-opacity:0.35;"/>
        </g>
        <g transform="matrix(3.28539,0,0,3.28539,-239.521,-129.787)">
            <circle cx="200" cy="553.846" r="6.842" style="fill:rgb(53,130,255);"/>
        </g>
        <g transform="matrix(3.28539,0,0,3.28539,-239.521,-129.787)">
            <circle cx="300" cy="553.846" r="6.842" style="fill:rgb(53,130,255);fill-opacity:0.35;"/>
        </g>
        <g transform="matrix(3.28539,0,0,3.28539,-239.521,-129.787)">
            <circle cx="400" cy="553.846" r="6.842" style="fill:rgb(53,130,255);"/>
        </g>
        <g transform="matrix(3.28539,0,0,3.28539,-239.521,-129.787)">
            <circle cx="500" cy="553.846" r="6.842" style="fill:rgb(53,130,255);fill-opacity:0.35;"/>
        </g>
        <g transform="matrix(3.28539,0,0,3.28539,-239.521,-129.787)">
            <circle cx="600" cy="553.846" r="6.842" style="fill:rgb(53,130,255);fill-opacity:0.35;"/>
        </g>
        <g transform="matrix(3.28539,0,0,3.28539,-239.521,-129.787)">
            <circle cx="700" cy="553.846" r="6.842" style="fill:rgb(53,130,255);fill-opacity:0.35;"/>
        </g>
    </g>
</svg>
